<svg xmlns="http://www.w3.org/2000/svg" xmlns:xlink="http://www.w3.org/1999/xlink" width="85" zoomAndPan="magnify" viewBox="0 0 63.75 44.999999" height="60" preserveAspectRatio="xMidYMid meet" version="1.0"><defs><clipPath id="b2c6f9b4ce"><path d="M 8.4375 0.0859375 L 54.9375 0.0859375 L 54.9375 44.910156 L 8.4375 44.910156 Z M 8.4375 0.0859375 " clip-rule="nonzero"/></clipPath></defs><g clip-path="url(#b2c6f9b4ce)"><path fill="#f7ab0a" d="M 30.457031 16.597656 C 34.382812 18.960938 38.679688 20.335938 42.929688 20.597656 L 42.773438 22.957031 C 42.753906 23.242188 42.898438 23.507812 43.148438 23.648438 C 43.257812 23.707031 43.378906 23.738281 43.496094 23.738281 C 43.648438 23.738281 43.796875 23.691406 43.925781 23.597656 L 51.25 18.21875 C 51.433594 18.085938 51.542969 17.875 51.550781 17.652344 C 51.558594 17.425781 51.460938 17.210938 51.292969 17.066406 L 44.699219 11.46875 C 44.488281 11.289062 44.199219 11.246094 43.945312 11.351562 C 43.695312 11.460938 43.523438 11.703125 43.503906 11.976562 L 43.339844 14.457031 C 38.824219 14.171875 32.949219 12.367188 29.074219 10.035156 C 24.945312 7.550781 21.875 4.449219 19.6875 0.554688 C 19.507812 0.238281 19.121094 0.101562 18.785156 0.234375 C 18.449219 0.371094 18.261719 0.738281 18.347656 1.09375 C 19.859375 7.222656 24.273438 12.875 30.457031 16.597656 Z M 28.332031 11.292969 C 32.597656 13.859375 39.183594 15.820312 43.996094 15.949219 C 44.382812 15.964844 44.714844 15.660156 44.742188 15.269531 L 44.859375 13.519531 L 49.648438 17.585938 L 44.328125 21.492188 L 44.429688 19.949219 C 44.441406 19.753906 44.375 19.558594 44.242188 19.410156 C 44.109375 19.261719 43.925781 19.175781 43.726562 19.167969 C 39.480469 19.039062 35.148438 17.714844 31.203125 15.339844 C 27.265625 12.972656 24.089844 9.789062 22.003906 6.210938 C 23.78125 8.132812 25.878906 9.816406 28.332031 11.292969 Z M 54.210938 42.097656 L 52.023438 42.097656 L 52.023438 31.921875 C 52.023438 31.515625 51.695312 31.1875 51.296875 31.1875 L 45.328125 31.1875 C 44.925781 31.1875 44.601562 31.515625 44.601562 31.921875 L 44.601562 42.097656 L 40.941406 42.097656 L 40.941406 25.875 C 40.941406 25.46875 40.613281 25.140625 40.214844 25.140625 L 34.246094 25.140625 C 33.84375 25.140625 33.519531 25.46875 33.519531 25.875 L 33.519531 42.097656 L 29.859375 42.097656 L 29.859375 38.308594 C 30.855469 36.660156 31.429688 34.722656 31.429688 32.65625 C 31.429688 30.585938 30.855469 28.648438 29.859375 27 L 29.859375 19.5625 C 29.859375 19.15625 29.53125 18.828125 29.132812 18.828125 L 23.164062 18.828125 C 22.761719 18.828125 22.4375 19.15625 22.4375 19.5625 L 22.4375 21.902344 C 21.839844 21.800781 21.230469 21.746094 20.605469 21.746094 C 19.980469 21.746094 19.371094 21.800781 18.777344 21.902344 L 18.777344 13.882812 C 18.777344 13.476562 18.449219 13.148438 18.050781 13.148438 L 12.082031 13.148438 C 11.679688 13.148438 11.355469 13.476562 11.355469 13.882812 L 11.355469 27 C 10.359375 28.648438 9.78125 30.585938 9.78125 32.65625 C 9.78125 34.722656 10.359375 36.660156 11.355469 38.308594 L 11.355469 42.097656 L 9.164062 42.097656 C 8.761719 42.097656 8.4375 42.425781 8.4375 42.828125 L 8.4375 45.101562 C 8.4375 45.503906 8.761719 45.832031 9.164062 45.832031 L 54.210938 45.832031 C 54.613281 45.832031 54.9375 45.503906 54.9375 45.101562 L 54.9375 42.828125 C 54.9375 42.425781 54.613281 42.097656 54.210938 42.097656 Z M 46.054688 32.652344 L 50.570312 32.652344 L 50.570312 42.097656 L 46.054688 42.097656 Z M 34.972656 26.605469 L 39.488281 26.605469 L 39.488281 42.097656 L 34.972656 42.097656 Z M 28.40625 42.097656 L 26.019531 42.097656 C 26.898438 41.582031 27.703125 40.945312 28.40625 40.210938 Z M 23.890625 20.292969 L 28.40625 20.292969 L 28.40625 25.097656 C 27.171875 23.804688 25.625 22.820312 23.890625 22.261719 Z M 12.808594 14.613281 L 17.324219 14.613281 L 17.324219 22.261719 C 15.585938 22.820312 14.042969 23.804688 12.808594 25.097656 Z M 20.605469 23.210938 C 25.773438 23.210938 29.976562 27.449219 29.976562 32.65625 C 29.976562 37.859375 25.773438 42.097656 20.605469 42.097656 C 15.441406 42.097656 11.234375 37.859375 11.234375 32.65625 C 11.234375 27.449219 15.441406 23.210938 20.605469 23.210938 Z M 12.808594 40.210938 C 13.507812 40.945312 14.3125 41.582031 15.195312 42.097656 L 12.808594 42.097656 Z M 53.484375 44.367188 L 9.890625 44.367188 L 9.890625 43.5625 L 53.484375 43.5625 Z M 17.429688 34.921875 C 17.332031 34.527344 17.566406 34.132812 17.957031 34.035156 C 18.347656 33.9375 18.742188 34.175781 18.835938 34.566406 C 19.054688 35.4375 19.925781 35.742188 20.632812 35.742188 C 20.652344 35.742188 20.671875 35.742188 20.691406 35.738281 C 21.316406 35.726562 21.898438 35.507812 22.171875 35.1875 C 22.320312 35.015625 22.375 34.816406 22.34375 34.5625 C 22.292969 34.128906 22.035156 33.605469 20.496094 33.347656 C 18.238281 32.976562 17.707031 31.789062 17.664062 30.863281 C 17.601562 29.578125 18.484375 28.503906 19.859375 28.191406 C 19.867188 28.1875 19.875 28.1875 19.878906 28.1875 L 19.878906 27.738281 C 19.878906 27.332031 20.203125 27.003906 20.605469 27.003906 C 21.007812 27.003906 21.332031 27.332031 21.332031 27.738281 L 21.332031 28.179688 C 22.234375 28.367188 23.097656 28.9375 23.546875 30.011719 C 23.703125 30.382812 23.527344 30.8125 23.15625 30.96875 C 22.789062 31.125 22.363281 30.949219 22.207031 30.578125 C 21.832031 29.679688 20.921875 29.449219 20.183594 29.617188 C 19.644531 29.742188 19.082031 30.113281 19.117188 30.792969 C 19.125 31.023438 19.15625 31.644531 20.730469 31.902344 C 22.597656 32.210938 23.625 33.046875 23.789062 34.386719 C 23.867188 35.050781 23.6875 35.660156 23.273438 36.144531 C 22.832031 36.65625 22.132812 37.011719 21.332031 37.148438 L 21.332031 37.570312 C 21.332031 37.976562 21.007812 38.304688 20.605469 38.304688 C 20.203125 38.304688 19.878906 37.976562 19.878906 37.570312 L 19.878906 37.136719 C 18.65625 36.898438 17.710938 36.074219 17.429688 34.921875 Z M 20.605469 41.15625 C 25.257812 41.15625 29.042969 37.34375 29.042969 32.652344 C 29.042969 27.964844 25.257812 24.152344 20.605469 24.152344 C 15.953125 24.152344 12.167969 27.964844 12.167969 32.652344 C 12.167969 37.34375 15.953125 41.15625 20.605469 41.15625 Z M 20.605469 25.617188 C 24.457031 25.617188 27.589844 28.773438 27.589844 32.65625 C 27.589844 36.535156 24.457031 39.691406 20.605469 39.691406 C 16.753906 39.691406 13.621094 36.535156 13.621094 32.65625 C 13.621094 28.773438 16.753906 25.617188 20.605469 25.617188 Z M 20.605469 25.617188 " fill-opacity="1" fill-rule="nonzero"/></g></svg>