<svg xmlns="http://www.w3.org/2000/svg" xmlns:xlink="http://www.w3.org/1999/xlink" width="85" zoomAndPan="magnify" viewBox="0 0 63.75 44.999999" height="60" preserveAspectRatio="xMidYMid meet" version="1.0"><defs><clipPath id="a0d09b826a"><path d="M 0 0.0859375 L 63.5 0.0859375 L 63.5 44.910156 L 0 44.910156 Z M 0 0.0859375 " clip-rule="nonzero"/></clipPath><clipPath id="2f4b44bb56"><path d="M 19 0.0859375 L 58 0.0859375 L 58 23 L 19 23 Z M 19 0.0859375 " clip-rule="nonzero"/></clipPath><clipPath id="55f14568a3"><path d="M 21 42 L 28 42 L 28 44.910156 L 21 44.910156 Z M 21 42 " clip-rule="nonzero"/></clipPath><clipPath id="175f9cff50"><path d="M 29 42 L 34 42 L 34 44.910156 L 29 44.910156 Z M 29 42 " clip-rule="nonzero"/></clipPath><clipPath id="b4a412369a"><path d="M 34 42 L 51 42 L 51 44.910156 L 34 44.910156 Z M 34 42 " clip-rule="nonzero"/></clipPath><clipPath id="b82a9eab1b"><path d="M 4.5 26.335938 L 16.050781 26.335938 L 16.050781 40.589844 L 4.5 40.589844 Z M 4.5 26.335938 " clip-rule="nonzero"/></clipPath><clipPath id="630ea56b88"><path d="M 4.8125 28.238281 L 16.0625 28.238281 L 16.0625 38.738281 L 4.8125 38.738281 Z M 4.8125 28.238281 " clip-rule="nonzero"/></clipPath></defs><g clip-path="url(#a0d09b826a)"><path fill="#f7ab0a" d="M 62.464844 38.515625 L 56.359375 38.515625 L 56.359375 15.6875 C 56.359375 15.125 55.898438 14.664062 55.328125 14.664062 L 50.972656 14.664062 C 50.402344 14.664062 49.941406 15.125 49.941406 15.6875 L 49.941406 38.515625 L 47.527344 38.515625 L 47.527344 25.671875 C 47.527344 25.105469 47.066406 24.648438 46.496094 24.648438 L 42.144531 24.648438 C 41.574219 24.648438 41.109375 25.105469 41.109375 25.671875 L 41.109375 38.515625 L 38.699219 38.515625 L 38.699219 19.921875 C 38.699219 19.355469 38.238281 18.898438 37.667969 18.898438 L 33.3125 18.898438 C 32.742188 18.898438 32.28125 19.355469 32.28125 19.921875 L 32.28125 38.515625 L 29.867188 38.515625 L 29.867188 29.671875 C 29.867188 29.109375 29.40625 28.648438 28.835938 28.648438 L 24.480469 28.648438 C 23.914062 28.648438 23.449219 29.109375 23.449219 29.671875 L 23.449219 38.515625 L 19.984375 38.515625 C 20.792969 37.027344 21.25 35.332031 21.25 33.527344 C 21.25 28.175781 17.210938 23.742188 12 23.070312 L 12 1.539062 C 12 0.832031 11.421875 0.261719 10.710938 0.261719 C 9.996094 0.261719 9.417969 0.832031 9.417969 1.539062 L 9.417969 23.050781 C 4.125 23.644531 -0.00390625 28.117188 -0.00390625 33.527344 C -0.00390625 39.34375 4.765625 44.074219 10.625 44.074219 C 13.503906 44.074219 16.121094 42.929688 18.039062 41.074219 L 62.464844 41.074219 C 63.175781 41.074219 63.753906 40.5 63.753906 39.792969 C 63.753906 39.085938 63.175781 38.515625 62.464844 38.515625 Z M 52.003906 16.714844 L 54.296875 16.714844 L 54.296875 38.515625 L 52.003906 38.515625 Z M 43.175781 26.695312 L 45.464844 26.695312 L 45.464844 38.515625 L 43.175781 38.515625 Z M 34.34375 20.945312 L 36.636719 20.945312 L 36.636719 38.515625 L 34.34375 38.515625 Z M 25.511719 30.699219 L 27.804688 30.699219 L 27.804688 38.515625 L 25.511719 38.515625 Z M 8.367188 37.882812 C 7.929688 37.625 7.574219 37.285156 7.300781 36.859375 C 7.027344 36.429688 6.894531 36.015625 6.894531 35.613281 C 6.894531 35.378906 6.972656 35.179688 7.136719 35.011719 C 7.300781 34.84375 7.511719 34.761719 7.765625 34.761719 C 7.96875 34.761719 8.140625 34.828125 8.285156 34.957031 C 8.425781 35.085938 8.546875 35.277344 8.648438 35.535156 C 8.769531 35.839844 8.902344 36.089844 9.042969 36.296875 C 9.1875 36.5 9.386719 36.667969 9.644531 36.800781 C 9.902344 36.929688 10.238281 36.996094 10.660156 36.996094 C 11.234375 36.996094 11.703125 36.863281 12.0625 36.597656 C 12.421875 36.332031 12.601562 36 12.601562 35.601562 C 12.601562 35.285156 12.507812 35.027344 12.3125 34.828125 C 12.117188 34.632812 11.867188 34.480469 11.558594 34.378906 C 11.25 34.273438 10.839844 34.164062 10.324219 34.046875 C 9.632812 33.886719 9.058594 33.699219 8.59375 33.484375 C 8.128906 33.269531 7.757812 32.976562 7.484375 32.605469 C 7.210938 32.234375 7.074219 31.777344 7.074219 31.226562 C 7.074219 30.699219 7.21875 30.234375 7.507812 29.828125 C 7.796875 29.421875 8.214844 29.109375 8.757812 28.886719 C 9.117188 28.746094 9.519531 28.648438 9.960938 28.601562 L 9.960938 27.792969 C 9.960938 27.386719 10.296875 27.054688 10.707031 27.054688 C 11.117188 27.054688 11.453125 27.386719 11.453125 27.792969 L 11.453125 28.609375 C 11.730469 28.644531 11.984375 28.699219 12.214844 28.777344 C 12.644531 28.921875 13 29.117188 13.285156 29.355469 C 13.570312 29.597656 13.777344 29.847656 13.90625 30.113281 C 14.039062 30.378906 14.101562 30.636719 14.101562 30.886719 C 14.101562 31.117188 14.019531 31.324219 13.859375 31.507812 C 13.695312 31.691406 13.488281 31.785156 13.246094 31.785156 C 13.023438 31.785156 12.851562 31.730469 12.738281 31.617188 C 12.621094 31.507812 12.496094 31.328125 12.359375 31.074219 C 12.1875 30.714844 11.976562 30.433594 11.730469 30.234375 C 11.488281 30.03125 11.09375 29.933594 10.554688 29.933594 C 10.050781 29.933594 9.644531 30.042969 9.339844 30.261719 C 9.03125 30.480469 8.875 30.742188 8.875 31.050781 C 8.875 31.242188 8.929688 31.40625 9.035156 31.542969 C 9.140625 31.683594 9.28125 31.800781 9.464844 31.902344 C 9.648438 32 9.835938 32.078125 10.023438 32.136719 C 10.210938 32.191406 10.519531 32.273438 10.953125 32.382812 C 11.496094 32.507812 11.984375 32.648438 12.421875 32.796875 C 12.863281 32.949219 13.234375 33.132812 13.542969 33.351562 C 13.851562 33.566406 14.089844 33.839844 14.261719 34.171875 C 14.4375 34.503906 14.523438 34.910156 14.523438 35.390625 C 14.523438 35.96875 14.371094 36.484375 14.074219 36.945312 C 13.773438 37.40625 13.335938 37.765625 12.761719 38.023438 C 12.371094 38.199219 11.933594 38.3125 11.449219 38.371094 C 11.449219 38.382812 11.453125 38.390625 11.453125 38.402344 L 11.453125 39.226562 C 11.453125 39.632812 11.117188 39.96875 10.707031 39.96875 C 10.296875 39.96875 9.960938 39.632812 9.960938 39.226562 L 9.960938 38.402344 C 9.960938 38.390625 9.964844 38.382812 9.964844 38.371094 C 9.347656 38.300781 8.8125 38.140625 8.367188 37.882812 Z M 8.367188 37.882812 " fill-opacity="1" fill-rule="nonzero"/></g><g clip-path="url(#2f4b44bb56)"><path fill="#f7ab0a" d="M 20.304688 22.847656 C 20.632812 22.847656 20.964844 22.722656 21.214844 22.472656 L 33.96875 9.816406 L 40.644531 16.445312 C 40.886719 16.683594 41.214844 16.820312 41.558594 16.820312 C 41.902344 16.820312 42.226562 16.683594 42.46875 16.445312 L 52.730469 6.261719 L 54.332031 7.851562 C 54.496094 8.011719 54.714844 8.101562 54.941406 8.101562 C 55.023438 8.101562 55.105469 8.089844 55.183594 8.066406 C 55.484375 7.976562 55.714844 7.730469 55.78125 7.425781 L 57.171875 0.992188 C 57.230469 0.707031 57.144531 0.414062 56.9375 0.207031 C 56.730469 0.00390625 56.433594 -0.0820312 56.148438 -0.0234375 L 49.664062 1.355469 C 49.355469 1.421875 49.109375 1.648438 49.019531 1.949219 C 48.929688 2.25 49.015625 2.574219 49.238281 2.792969 L 50.90625 4.449219 L 41.558594 13.730469 L 34.878906 7.101562 C 34.375 6.601562 33.558594 6.601562 33.054688 7.101562 L 19.390625 20.660156 C 18.890625 21.160156 18.890625 21.972656 19.390625 22.472656 C 19.644531 22.722656 19.972656 22.847656 20.304688 22.847656 Z M 20.304688 22.847656 " fill-opacity="1" fill-rule="nonzero"/></g><g clip-path="url(#55f14568a3)"><path fill="#f7ab0a" d="M 26.941406 42.855469 L 22.320312 42.855469 C 21.75 42.855469 21.289062 43.3125 21.289062 43.878906 C 21.289062 44.445312 21.75 44.902344 22.320312 44.902344 L 26.941406 44.902344 C 27.511719 44.902344 27.972656 44.445312 27.972656 43.878906 C 27.972656 43.3125 27.511719 42.855469 26.941406 42.855469 Z M 26.941406 42.855469 " fill-opacity="1" fill-rule="nonzero"/></g><g clip-path="url(#175f9cff50)"><path fill="#f7ab0a" d="M 32.167969 42.855469 L 30.46875 42.855469 C 29.898438 42.855469 29.4375 43.3125 29.4375 43.878906 C 29.4375 44.445312 29.898438 44.902344 30.46875 44.902344 L 32.167969 44.902344 C 32.738281 44.902344 33.199219 44.445312 33.199219 43.878906 C 33.199219 43.3125 32.738281 42.855469 32.167969 42.855469 Z M 32.167969 42.855469 " fill-opacity="1" fill-rule="nonzero"/></g><g clip-path="url(#b4a412369a)"><path fill="#f7ab0a" d="M 49.21875 42.855469 L 35.894531 42.855469 C 35.328125 42.855469 34.863281 43.3125 34.863281 43.878906 C 34.863281 44.445312 35.328125 44.902344 35.894531 44.902344 L 49.21875 44.902344 C 49.789062 44.902344 50.25 44.445312 50.25 43.878906 C 50.25 43.3125 49.789062 42.855469 49.21875 42.855469 Z M 49.21875 42.855469 " fill-opacity="1" fill-rule="nonzero"/></g><g clip-path="url(#b82a9eab1b)"><path fill="#f7ab0a" d="M 4.5 26.335938 L 16.101562 26.335938 L 16.101562 40.679688 L 4.5 40.679688 Z M 4.5 26.335938 " fill-opacity="1" fill-rule="nonzero"/></g><g clip-path="url(#630ea56b88)"><path fill="#fefefe" d="M 6.757812 31.898438 L 7.671875 31.898438 L 7.8125 36.707031 L 6.632812 36.707031 Z M 5.894531 36.882812 L 14.980469 36.882812 L 14.980469 37.5 L 15.523438 37.5 L 15.523438 38.121094 L 16.054688 38.121094 L 16.054688 38.738281 L 4.820312 38.738281 L 4.820312 38.121094 L 5.347656 38.121094 L 5.347656 37.5 L 5.894531 37.5 Z M 15.453125 30.554688 L 10.4375 28.238281 L 5.417969 30.554688 L 5.417969 30.933594 L 15.453125 30.933594 Z M 6.386719 31.105469 L 14.488281 31.105469 L 14.488281 31.722656 L 6.386719 31.722656 Z M 13.183594 31.898438 L 14.101562 31.898438 L 14.242188 36.710938 L 13.0625 36.710938 Z M 11.042969 31.898438 L 11.957031 31.898438 L 12.097656 36.707031 L 10.917969 36.707031 Z M 8.898438 31.898438 L 9.816406 31.898438 L 9.957031 36.710938 L 8.777344 36.710938 Z M 8.898438 31.898438 " fill-opacity="1" fill-rule="nonzero"/></g></svg>